<svg width="90" height="90" viewBox="0 0 90 90" fill="none" xmlns="http://www.w3.org/2000/svg">
<circle cx="45" cy="45" r="45" fill="white"/>
<path d="M30.9919 31H40.9919V41H38.9919V33.986C36.2212 35.1454 33.9373 37.2282 32.5281 39.8805C31.1188 42.5329 30.6712 45.5913 31.2611 48.5362C31.8511 51.4812 33.4422 54.1311 35.7643 56.036C38.0865 57.9409 40.9964 58.9832 43.9999 58.986C47.1891 58.9891 50.2682 57.8198 52.6514 55.7005C55.0346 53.5812 56.5556 50.6597 56.925 47.492C57.2945 44.3242 56.4866 41.1312 54.6551 38.5203C52.8236 35.9094 50.0962 34.0629 46.9919 33.332V31.284C50.4304 31.9837 53.5148 33.8667 55.7085 36.6055C57.9022 39.3443 59.0662 42.7654 58.9982 46.2738C58.9301 49.7821 57.6342 53.1556 55.3359 55.8072C53.0377 58.4588 49.8825 60.2208 46.4194 60.7866C42.9563 61.3523 39.4045 60.686 36.3818 58.9037C33.3592 57.1213 31.0571 54.3356 29.8761 51.0314C28.6951 47.7271 28.7099 44.1133 29.9179 40.8188C31.1259 37.5243 33.4507 34.7576 36.4879 33H30.9919V31Z" fill="#CD0405"/>
<path d="M85 44.7273C85 67.2203 67.0914 85.4545 45 85.4545C22.9086 85.4545 5 67.2203 5 44.7273C5 22.2342 22.9086 4 45 4C67.0914 4 85 22.2342 85 44.7273ZM8.06113 44.7273C8.06113 65.499 24.5992 82.3378 45 82.3378C65.4008 82.3378 81.9389 65.499 81.9389 44.7273C81.9389 23.9556 65.4008 7.11679 45 7.11679C24.5992 7.11679 8.06113 23.9556 8.06113 44.7273Z" fill="#CD0405"/>
</svg>
