<svg width="24" height="24" viewBox="0 0 24 24" fill="none" xmlns="http://www.w3.org/2000/svg">
<circle cx="12" cy="12" r="12" fill="white"/>
<path d="M19 11.5C19.0001 13.149 18.4674 14.7364 17.5097 15.9407C16.552 17.145 15.241 17.8762 13.8421 17.9861V17.116C15.0437 17.0049 16.1654 16.365 16.9836 15.3241C17.8017 14.2831 18.2562 12.9176 18.2562 11.5C18.2562 10.0824 17.8017 8.71689 16.9836 7.67594C16.1654 6.63499 15.0437 5.99512 13.8421 5.884V5.01387C15.241 5.1238 16.552 5.85497 17.5097 7.05928C18.4674 8.26359 19.0001 9.851 19 11.5ZM16.7895 11.5C16.7896 12.4594 16.4891 13.3853 15.9453 14.1005C15.4016 14.8157 14.6528 15.27 13.8421 15.3766V14.503C14.456 14.3987 15.0173 14.0377 15.4233 13.4861C15.8293 12.9346 16.0528 12.2295 16.0528 11.5C16.0528 10.7705 15.8293 10.0654 15.4233 9.51386C15.0173 8.96235 14.456 8.60135 13.8421 8.497V7.6234C14.6528 7.73001 15.4016 8.18434 15.9453 8.89953C16.4891 9.61472 16.7896 10.5406 16.7895 11.5ZM14.5789 11.5C14.5791 11.7689 14.5083 12.0313 14.3763 12.251C14.2443 12.4706 14.0577 12.6367 13.8421 12.7263V10.2737C14.0577 10.3633 14.2443 10.5294 14.3763 10.749C14.5083 10.9687 14.5791 11.2311 14.5789 11.5ZM5 8.46667H7.94737L10.8947 5H12.3684V18H10.8947L7.94737 14.5333H5V8.46667ZM5.73684 13.6667H8.25242L11.1998 17.1333H11.6316V5.86667H11.1998L8.25242 9.33333H5.73684V13.6667Z" fill="#CD0405"/>
</svg>
