<svg width="24" height="24" viewBox="0 0 24 24" fill="none" xmlns="http://www.w3.org/2000/svg">
<circle cx="12" cy="12" r="12" fill="white"/>
<path d="M5.09475 5.78025L5.625 5.25L18.1875 17.8125L17.6572 18.3428L15.9765 16.6627C15.2221 17.1072 14.3738 17.3682 13.5 17.4247V16.6725C14.1741 16.6216 14.8302 16.4303 15.426 16.1108L14.2935 14.9783C14.0422 15.072 13.776 15.1358 13.5 15.1658V14.4105C13.5645 14.4008 13.6275 14.3895 13.6905 14.376L12 12.6848V17.4375H10.5L7.5 14.4375H4.5V9.1875H7.5L8.001 8.6865L5.09475 5.78025ZM18.75 11.8125C18.75 13.335 18.1455 14.715 17.1637 15.7275L16.6335 15.1973C17.2754 14.5317 17.7148 13.6972 17.9004 12.7913C18.086 11.8855 18.0101 10.9455 17.6815 10.0811C17.353 9.21672 16.7854 8.4636 16.045 7.90964C15.3046 7.35567 14.422 7.02371 13.5 6.9525V6.1995C14.9238 6.29463 16.2583 6.92738 17.2331 7.96957C18.2079 9.01176 18.7501 10.3855 18.75 11.8125ZM16.5 11.8125C16.5 12.7125 16.1475 13.5315 15.5723 14.1368L15.042 13.6058C15.3699 13.2554 15.5955 12.8219 15.6943 12.3523C15.7931 11.8828 15.7613 11.3951 15.6023 10.9423C15.4434 10.4896 15.1634 10.089 14.7927 9.78428C14.422 9.47953 13.9749 9.2822 13.5 9.21375V8.45775C14.3251 8.55 15.0873 8.94318 15.6408 9.56209C16.1943 10.181 16.5002 10.9822 16.5 11.8125ZM14.25 11.8125C14.25 12.0915 14.148 12.3473 13.98 12.5438L13.5 12.0638V10.7513C13.7194 10.8288 13.9094 10.9726 14.0437 11.1626C14.1781 11.3527 14.2501 11.5798 14.25 11.8125ZM7.8105 9.9375H5.25V13.6875H7.8105L10.8105 16.6875H11.25V11.9355L8.53125 9.2175L7.81125 9.93825L7.8105 9.9375ZM10.5 6.1875H12V10.5645L11.25 9.8145V6.9375H10.8105L9.5925 8.15625L9.06225 7.626L10.5 6.1875Z" fill="#CD0405"/>
</svg>
